<?xml version="1.0" encoding="utf-8"?>
<!-- Generator: Adobe Illustrator 19.2.1, SVG Export Plug-In . SVG Version: 6.00 Build 0)  -->
<svg version="1.1" id="layer" xmlns="http://www.w3.org/2000/svg" xmlns:xlink="http://www.w3.org/1999/xlink" x="0px" y="0px"
	 viewBox="0 0 652 652" style="enable-background:new 0 0 652 652;" xml:space="preserve">
<style type="text/css">
	.st0{fill:#191919;}
	.st1{fill:#FF5000;}
	.st2{fill:none;stroke:#000000;stroke-width:9.1399;}
	.st3{fill:#FFFFFF;}
</style>
<rect x="20.1" y="178.9" class="st0" width="600" height="287"/>
<path class="st1" d="M428.7,372.7c37,0,67-30.4,67-67c0-37-30.4-67.4-67-67.4c-37,0-67.4,30.4-67.4,67.4S391.7,372.7,428.7,372.7z"
	/>
<path class="st2" d="M495.7,306.1h-24.5l-14.6,26.2l-27.9-67.8L406.7,314h-44.5"/>
<path class="st1" d="M268.9,237.9h5.8l-5.8,14.1V237.9z M268.9,356.9c2.5,4.6,5.8,8.3,9.2,11.2c7.5,6.2,16.6,9.1,27.9,9.1
	c12.1,0,22.1-4.2,30.4-12.1c8.3-8.3,12.5-18.3,12.5-30c0-10.4-3.3-18.7-10-24.1c-6.6-5.4-13.7-10-21.6-13.3l-3.7-2.1l-3.8-1.7
	c-7.1-3.7-12.9-7.1-17.5-10c-4.6-3.3-6.7-7.9-6.7-13.7c0-6.2,2.5-10.8,7.1-14.6c4.6-3.7,10.4-5.8,16.6-5.8c4.2,0,7.9,0.8,10.8,2.5
	c2.9,1.7,5.8,4.2,8.7,7.9l1.2,2.1c0.4,0.4,0.8,0.8,1.7,2.1l12.1-7.9c-4.2-7.1-8.7-12.5-15-15.8c-5.8-3.7-12.5-5.4-19.1-5.4
	c-11.6,0-21.2,3.3-28.7,10c-7.5,6.7-11.2,15-11.2,25.4c0,9.6,3.3,17.1,10,22.5c6.7,5.4,13.7,9.6,21.6,12.9l2.5,1.2l2.5,0.8
	c7.5,3.7,13.7,7.5,18.7,10.8c5,3.7,7.9,8.7,7.9,15.8c0,7.9-2.5,14.6-7.9,20c-5.4,5.4-12.1,7.9-20,7.9c-7.1,0-12.9-2.1-17.9-6.7
	c-4.6-4.6-7.9-10.8-10-19.1l-9.2,2.9v17.1H268.9z M133.6,340.7l43.3-110.3l40.8,110.3l40.4-103.2h10.8v14.2l-52,130.7L176.5,272
	l-43.3,110.3L80.4,237.9H97L133.6,340.7z M268.9,340.7l-5.8,1.7c1.2,5.4,3.3,10.4,5.8,15V340.7z"/>
<g>
	<path class="st3" d="M484.1,251.2c-15-14.6-33.3-22.1-55.4-22.5c-0.4,0-0.8,0-0.8,0c-13.7,0-26.6,3.3-38.7,10.4
		c-12.1,7.1-21.2,16.2-28.3,28.7c-6.7,12.1-10.4,25.4-10.4,39.5c0,21.2,7.5,39.5,22.5,54.5c15,15,33.7,22.5,55.4,22.5
		c21.6,0,40-7.5,54.9-22.5c15-15,22.5-33.3,22.5-54.9C506.6,284.5,499.1,266.2,484.1,251.2z M483.2,338.6
		c-5.4,9.6-12.9,17.5-22.9,22.9c-9.6,5.4-20.4,8.3-31.6,8.3h-0.4c-17.1,0-32-6.2-44.1-18.3c-12.1-12.1-18.3-27.1-18.3-44.5
		c0-11.7,2.9-22.5,8.3-32c5.4-9.6,13.3-17.5,22.9-22.9c10-5.8,20-8.7,31.2-8.7h0.4c10.8,0,21.2,2.9,31.2,8.7
		c10,5.8,17.5,13.3,22.9,22.9c5.4,9.6,8.3,20,8.3,32C491.6,318.2,488.7,329,483.2,338.6z"/>
	<path class="st3" d="M512,301.5c3.3-0.8,7.1-1.7,11.2-1.7c10.4,0,19.1,3.3,25.4,10c6.2,6.7,9.6,14.6,9.6,23.7
		c0,6.7-1.7,12.5-4.6,18.3c-3.3,5.8-9.2,13.3-17.9,22.9l-28.3,30.4h52.4V416h-77.4l43.3-46.2c8.7-9.6,14.6-16.2,17.1-20.8
		c2.5-4.6,4.2-9.2,4.2-14.6c0-6.2-2.5-12.1-7.1-16.7c-4.6-4.6-10.8-7.1-17.5-7.1c-3.7,0-7.5,0.8-10.8,2.1c0.4-2.9,0.4-5.4,0.4-8.3
		C512,303.6,512,302.8,512,301.5z"/>
</g>
</svg>
